<svg width="64" height="64" viewBox="0 0 64 64" fill="none" xmlns="http://www.w3.org/2000/svg">
  <rect width="64" height="64" rx="16" fill="#ef4444"/>
  <rect x="8" y="8" width="48" height="48" rx="12" fill="rgba(255,255,255,0.15)"/>
  <!-- Clipboard -->
  <rect x="16" y="18" width="32" height="34" rx="4" fill="rgba(255,255,255,0.15)"/>
  <rect x="16" y="18" width="32" height="34" rx="4" stroke="rgba(255,255,255,0.6)" stroke-width="1.5"/>
  <!-- Clipboard clip -->
  <rect x="24" y="14" width="16" height="8" rx="3" fill="rgba(255,255,255,0.3)"/>
  <rect x="24" y="14" width="16" height="8" rx="3" stroke="rgba(255,255,255,0.5)" stroke-width="1.5"/>
  <!-- Lines -->
  <line x1="22" y1="30" x2="42" y2="30" stroke="rgba(255,255,255,0.7)" stroke-width="2" stroke-linecap="round"/>
  <line x1="22" y1="37" x2="38" y2="37" stroke="rgba(255,255,255,0.5)" stroke-width="2" stroke-linecap="round"/>
  <!-- Check -->
  <circle cx="20" cy="30" r="3" fill="rgba(255,255,255,0.2)"/>
  <path d="M18.5 30 L19.8 31.5 L22 28.5" stroke="white" stroke-width="1.5" stroke-linecap="round" stroke-linejoin="round"/>
  <!-- Wrench -->
  <path d="M34 44 L42 36" stroke="white" stroke-width="2" stroke-linecap="round"/>
  <path d="M40 29 C42 27 46 28 46 28 L43 31 L41 31 L41 29 L44 26 C44 26 41 25 39 27 C37 29 37 33 39 35 C41 37 45 37 47 35" stroke="white" stroke-width="1.8" stroke-linecap="round" stroke-linejoin="round"/>
</svg>
